PathFileType	4	(X/Y/Z)	C:/Users/opensim2020/Desktop/walking_exp_matlab/subject02_walking15_straight_04.trc	
DataRate	CameraRate	NumFrames	NumMarkers	Units	OrigDataRate	OrigDataStartFrame	OrigNumFrames	
100.00	100.00	6	42	mm	100.00	1774	152	
Frame#	Time	LFHD			RFHD			LBHD			RBHD			C7			T10			CLAV			STRN			RBAK			LSHO			LUPA			LELB			LFRM			LWRA			LWRB			LFIN			RSHO			RUPA			RELB			RFRM			RWRA			RWRB			RFIN			LASI			RASI			LPSI			RPSI			LTHI			LKNE			LTIB			LANK			LHEE			LTOE			RTHI			RKNE			RTIB			RANK			RHEE			RTOE			*39			*40			*41			
		X1	Y1	Z1	X2	Y2	Z2	X3	Y3	Z3	X4	Y4	Z4	X5	Y5	Z5	X6	Y6	Z6	X7	Y7	Z7	X8	Y8	Z8	X9	Y9	Z9	X10	Y10	Z10	X11	Y11	Z11	X12	Y12	Z12	X13	Y13	Z13	X14	Y14	Z14	X15	Y15	Z15	X16	Y16	Z16	X17	Y17	Z17	X18	Y18	Z18	X19	Y19	Z19	X20	Y20	Z20	X21	Y21	Z21	X22	Y22	Z22	X23	Y23	Z23	X24	Y24	Z24	X25	Y25	Z25	X26	Y26	Z26	X27	Y27	Z27	X28	Y28	Z28	X29	Y29	Z29	X30	Y30	Z30	X31	Y31	Z31	X32	Y32	Z32	X33	Y33	Z33	X34	Y34	Z34	X35	Y35	Z35	X36	Y36	Z36	X37	Y37	Z37	X38	Y38	Z38	X39	Y39	Z39	X40	Y40	Z40	X41	Y41	Z41	X42	Y42	Z42	

96	0.950	-1015.33820	-197.79813	1730.27661	-1158.68860	-203.13120	1720.05139	-1015.04303	-74.56355	1644.24133	-1158.40710	-67.59401	1631.10168	-1097.39941	-31.86824	1507.86597	-1125.00012	14.48421	1235.08850	-1078.11316	-172.80421	1442.05652	-1096.79126	-228.05386	1270.96448	-1180.17554	15.51231	1340.57190	-915.14691	-86.33150	1472.06531	-838.13715	-28.43526	1281.15723	-820.08698	4.59331	1147.11145	-799.56653	25.62431	1017.47577	-815.43243	-4.90312	881.23602	-790.33826	43.24001	895.77960	-778.81458	38.21593	830.85425	-1272.33521	-121.36258	1494.05432	-1387.95996	-141.02635	1323.50867	-1429.54578	-202.15321	1191.02979	-1440.83875	-295.78851	1111.85291	-1411.99109	-406.65561	1041.30493	-1448.17395	-376.54236	1010.10925	-1447.37866	-444.51913	988.03949	-990.89026	-204.37651	967.80548	-1249.86414	-205.73808	958.19519	-1073.63733	3.28864	1018.99036	-1187.15344	5.33556	1024.90430	-922.62701	-213.13417	672.99561	-956.27246	-269.41550	484.84766	-965.31946	-272.03696	290.74054	-984.12164	-352.48807	79.42150	-1043.78687	-340.40161	46.14764	-939.50385	-500.10342	83.45015	-1316.05945	-68.20477	666.41431	-1280.45569	-9.94675	461.14197	-1297.14636	69.96494	291.30991	-1267.79578	128.00977	103.44486	-1217.80090	175.76857	51.95915	-1270.33203	-18.26089	36.89411	-1104.75354	-92.40923	1791.25598						 
97	0.960	-1012.89313	-212.06252	1727.99207	-1156.38086	-217.53482	1717.36670	-1013.10254	-88.40063	1641.63123	-1156.35266	-81.75298	1628.69775	-1095.17139	-45.75330	1505.30139	-1122.00769	0.47116	1232.40234	-1076.08081	-186.87650	1439.27429	-1094.99487	-242.06107	1268.37683	-1177.03894	1.52693	1337.78210	-912.88336	-100.50943	1469.36108	-836.54584	-41.29289	1278.79224	-819.33807	-6.20337	1145.57495	-797.37506	19.87867	1017.79797	-811.01019	-6.07138	879.91510	-786.98291	41.95354	896.80670	-774.40332	40.30005	832.12177	-1270.11719	-135.22971	1491.33582	-1386.22266	-155.37813	1321.59937	-1429.02380	-218.45389	1190.32837	-1439.19055	-315.05829	1114.62390	-1409.06897	-428.47034	1049.01111	-1444.98889	-399.79779	1016.18567	-1443.74536	-468.58270	997.30560	-987.85706	-220.19110	963.93616	-1248.46753	-219.16708	955.63129	-1071.38867	-10.77379	1015.62653	-1184.22168	-8.16442	1021.55939	-920.30652	-225.16934	668.48688	-953.57184	-285.44785	481.79953	-960.49469	-296.37061	288.40491	-977.08502	-384.65994	80.60444	-1037.17932	-373.99585	46.10000	-931.88226	-532.27271	88.98309	-1314.85901	-78.18282	665.25299	-1279.30042	-17.49448	460.78650	-1296.05872	65.61367	292.39435	-1267.24744	126.92782	105.38532	-1217.12390	175.17082	54.57943	-1270.48438	-18.47347	36.86905	-1102.97449	-106.95144	1788.46985						 
98	0.970	-1010.13202	-225.64574	1725.20398	-1153.88916	-231.78752	1714.87061	-1010.98907	-102.34239	1639.17566	-1154.15308	-95.91243	1626.41821	-1092.64856	-59.72292	1502.82324	-1118.87073	-13.63283	1229.76746	-1073.86377	-200.85255	1436.78967	-1092.98767	-256.31583	1266.00061	-1173.81433	-12.33815	1335.06030	-910.32269	-114.68031	1466.82263	-834.84357	-54.40142	1276.38721	-818.16895	-17.66700	1144.10327	-795.45203	13.39774	1018.05597	-806.70313	-7.44220	879.32288	-783.67444	40.03224	898.22058	-770.32196	41.35087	833.68872	-1267.66956	-148.80701	1488.90051	-1384.34436	-169.29018	1319.64575	-1428.18677	-234.06241	1189.48474	-1437.29260	-333.42920	1117.26672	-1405.88330	-449.02341	1056.30408	-1441.62256	-421.87338	1022.12408	-1439.99243	-491.36136	1006.36121	-985.64191	-235.11383	960.12659	-1246.59668	-233.21651	953.43536	-1068.83472	-25.70746	1012.31744	-1181.27917	-21.87258	1018.45959	-917.71893	-236.90642	664.38422	-950.44318	-301.93488	479.25363	-954.88550	-319.47455	286.79678	-970.66559	-413.59946	81.58931	-1029.93152	-403.57074	46.81857	-926.47296	-561.70667	93.49753	-1313.95789	-88.70117	664.07782	-1278.98853	-25.97911	460.81812	-1295.19067	60.75030	293.74078	-1267.15417	125.33783	107.61471	-1216.84985	174.55367	57.88602	-1270.66418	-18.74392	36.82260	-1100.05225	-120.95113	1786.33887						 
99	0.980	-1007.69104	-239.68848	1722.78271	-1151.27979	-245.97557	1712.54675	-1008.63251	-116.56942	1636.73206	-1151.67798	-110.10432	1623.98108	-1089.89136	-73.63374	1500.43848	-1115.55652	-27.79162	1227.15088	-1071.32678	-214.86577	1434.47888	-1090.77417	-270.71622	1263.66431	-1170.94995	-26.04452	1332.53711	-907.62170	-128.86919	1464.42407	-832.69244	-67.13052	1274.20447	-817.25256	-29.13785	1142.69519	-793.15979	5.52232	1018.54565	-802.65576	-9.55026	878.90289	-780.56622	37.77164	899.89716	-766.40186	41.74819	835.67792	-1265.12695	-162.34543	1486.41992	-1382.15149	-182.70618	1317.58728	-1427.03967	-248.99994	1188.48267	-1435.09985	-350.88916	1119.63831	-1402.66235	-468.38730	1063.62585	-1438.27979	-442.71140	1027.89380	-1436.21472	-512.95020	1015.07477	-983.26050	-250.83340	957.00702	-1244.69519	-247.40939	951.65070	-1066.16858	-40.74492	1009.36127	-1178.19141	-35.95715	1015.76947	-915.11011	-249.38234	661.14661	-947.07269	-319.03647	477.30511	-948.94061	-340.98444	285.55240	-964.22668	-439.54276	82.45006	-1022.96497	-429.21893	46.54961	-922.79871	-588.33423	97.06405	-1312.73132	-99.37184	663.13977	-1277.82092	-35.23417	459.99594	-1294.52454	55.26456	295.25162	-1266.87000	123.76753	110.38677	-1216.82849	173.33487	61.57978	-1270.77917	-19.08119	36.51893	-1097.60046	-135.14029	1783.98096						 
100	0.990	-1005.34668	-254.14807	1720.39026	-1148.59888	-260.19571	1710.17053	-1005.94495	-130.59319	1634.47058	-1149.18701	-124.17059	1621.89600	-1086.87634	-87.43624	1498.10229	-1112.18372	-42.11296	1224.61902	-1068.56714	-229.02415	1432.40723	-1088.28284	-285.02838	1261.98022	-1167.36621	-39.80830	1329.78064	-904.65466	-143.14500	1462.19788	-830.26086	-81.01684	1271.82788	-815.93262	-41.37327	1141.31750	-791.34387	-2.16774	1019.25635	-798.58606	-12.60199	878.88599	-777.34808	33.74866	902.00543	-762.67926	40.99835	838.26880	-1262.38416	-175.68199	1483.91150	-1379.63550	-195.74246	1315.47559	-1425.91077	-263.25137	1187.58936	-1432.70618	-367.39999	1121.79309	-1399.43091	-486.60330	1070.46313	-1434.52600	-462.34637	1033.18994	-1432.53943	-533.03766	1023.74475	-980.99487	-266.84406	954.60345	-1242.91162	-261.81943	949.93054	-1063.16589	-56.05323	1006.70276	-1174.96484	-50.44057	1013.36157	-912.31927	-263.48950	659.01801	-943.69324	-336.16171	475.61374	-943.14661	-360.92352	284.47653	-957.91309	-462.28177	82.60284	-1015.18726	-450.82840	45.41682	-920.89044	-612.05042	99.42902	-1311.88794	-110.59651	662.55219	-1277.53430	-45.09923	460.05722	-1293.86584	49.25632	297.03647	-1267.01758	121.83776	113.65550	-1216.85010	172.15253	66.17994	-1271.18774	-19.51579	36.75384	-1095.08923	-149.47466	1781.61755						 
101	1.000	-1002.58398	-268.26721	1718.30005	-1145.88879	-274.40741	1707.89734	-1002.99951	-144.43143	1632.90723	-1146.16248	-138.39809	1619.71838	-1083.62622	-101.22936	1495.99341	-1108.68250	-56.59290	1222.19165	-1065.67114	-243.00761	1430.45471	-1085.62097	-299.50934	1260.32642	-1163.05261	-53.81566	1327.24146	-901.46191	-157.51973	1460.08655	-827.98810	-94.48633	1269.62366	-814.74756	-53.85137	1139.95776	-789.34796	-11.15395	1019.90234	-794.78180	-16.76476	879.20062	-774.44135	28.91676	904.42712	-759.15509	39.42769	840.91498	-1259.52185	-188.65408	1481.87744	-1377.13550	-208.25206	1313.44495	-1423.51709	-276.96695	1186.10352	-1430.13232	-383.02744	1123.67468	-1396.13281	-503.65897	1076.80286	-1430.86450	-480.77304	1038.33801	-1428.73853	-551.86139	1031.68518	-979.00183	-283.20865	953.10272	-1241.01550	-276.67953	948.45062	-1059.70374	-71.86956	1004.13147	-1171.57556	-65.34626	1011.24323	-909.16992	-279.85638	657.92859	-940.46521	-353.10144	474.09662	-937.39832	-379.21436	283.34579	-951.91492	-481.91815	82.03610	-1008.46973	-468.42868	43.28052	-920.14832	-632.43707	100.25178	-1310.74207	-122.21967	662.27234	-1277.16675	-55.58687	459.89288	-1292.87476	42.91838	299.25095	-1267.28113	119.54466	117.57310	-1216.87012	170.69025	71.36198	-1271.54346	-19.82996	36.89803	-1092.58142	-163.73244	1779.79651						 
